<svg xmlns="http://www.w3.org/2000/svg" viewBox="0 0 100 100" width="100" height="100">
  <!-- 당근 몸통 -->
  <path d="M50 95 C 30 95, 10 60, 10 30 C 10 15, 30 5, 50 5 C 70 5, 90 15, 90 30 C 90 60, 70 95, 50 95" fill="#FF7F50"/>
  
  <!-- 당근 줄기 -->
  <path d="M40 10 C 40 0, 60 0, 60 10" stroke="#4CAF50" stroke-width="5" fill="none"/>
  <path d="M35 15 C 35 5, 50 5, 50 15" stroke="#4CAF50" stroke-width="4" fill="none"/>
  <path d="M65 15 C 65 5, 50 5, 50 15" stroke="#4CAF50" stroke-width="4" fill="none"/>
  
  <!-- 당근 무늬 -->
  <path d="M30 40 C 40 35, 60 35, 70 40" stroke="#FF6347" stroke-width="3" fill="none"/>
  <path d="M25 55 C 35 50, 65 50, 75 55" stroke="#FF6347" stroke-width="3" fill="none"/>
  <path d="M20 70 C 30 65, 70 65, 80 70" stroke="#FF6347" stroke-width="3" fill="none"/>
  
  <!-- 눈 -->
  <circle cx="40" cy="25" r="5" fill="white"/>
  <circle cx="60" cy="25" r="5" fill="white"/>
  <circle cx="40" cy="25" r="2" fill="black"/>
  <circle cx="60" cy="25" r="2" fill="black"/>
  
  <!-- 미소 -->
  <path d="M40 40 Q 50 50, 60 40" stroke="black" stroke-width="2" fill="none"/>
</svg>